<svg xmlns="http://www.w3.org/2000/svg" viewBox="0 0 59 63.99 " ><path d="M53.63 27.72a1 1 0 0 0-1-.8H44c-.56-4.17-3.2-7.22-7.54-8.79a7.59 7.59 0 0 0 1.94-4.93V8.73a8.46 8.46 0 0 0-6-8.15c-2.89-1-5.84-.66-7.34.85-3.2.77-4.65 4.4-4.65 6.83v4.94a7.61 7.61 0 0 0 2 4.94c-4.3 1.64-6.77 4.58-7.37 8.77H6.35a1 1 0 0 0-1 .8L0 53.78A1 1 0 0 0 1 55h14.06a11 11 0 0 0-1.68 5.86 1 1 0 0 0 .7 1A50.2 50.2 0 0 0 29 64a50.17 50.17 0 0 0 15-2.17 1 1 0 0 0 .7-1A10.51 10.51 0 0 0 43 55h15a1 1 0 0 0 1-1.2zM42 26.92h-8.56L32.15 21a9.7 9.7 0 0 0 2.43-1.16l.18-.14c4.24 1.16 6.65 3.59 7.24 7.22zM22.44 13.2v-2h.77a3.69 3.69 0 0 0 3.53-2 5 5 0 0 0 4.45 2h5.25v2a6.12 6.12 0 0 1-3 5 7.32 7.32 0 0 1-4 1.26 7.05 7.05 0 0 1-1.33-.14C25 18.64 22.44 16 22.44 13.2zm7 8.21c.23 0 .47 0 .7-.06l1.21 5.56h-3.8l1.1-5.54c.29.02.54.04.78.04zm-7-13.16c0-1.52 1-4.54 3.33-4.93a1 1 0 0 0 .61-.32c.84-1 3.2-1.27 5.38-.5a6.66 6.66 0 0 1 4.68 6.26v.44h-5.25c-2.07 0-2.53-.56-3.66-2.3a1 1 0 0 0-.84-.46 1 1 0 0 0-.84.46l-.39.61c-.93 1.49-1.05 1.67-2.27 1.68h-.75zm1.65 11.42A9.61 9.61 0 0 0 26.74 21l-1.18 5.93H17c.65-3.65 2.91-5.93 7.08-7.26zm-8.68 40.47a8.23 8.23 0 0 1 2.43-5.45 12.37 12.37 0 0 1 5.38-2.83 10.55 10.55 0 0 0 5.72 1.75A10.47 10.47 0 0 0 34.42 52l.26-.18c3.59.92 7.65 3.1 8 8.27a50.9 50.9 0 0 1-27.27.05zm5.9-19.67c0-1.41.83-4.46 3.67-4.9a1 1 0 0 0 .6-.33 4.12 4.12 0 0 1 3.06-1 9.42 9.42 0 0 1 3.23.59c1.41.53 4.68 2.18 4.68 6.11v2.86c-4.85 2.83-12.19 2-15.21 0zm7.51 7.21a18.38 18.38 0 0 0 7.67-1.59 6.33 6.33 0 0 1-3.13 4.26A8.44 8.44 0 0 1 29 51.62c-3.66 0-7-2.52-7.53-5.42a17.77 17.77 0 0 0 7.36 1.48zM41.29 53a13.67 13.67 0 0 0-4.8-2.66 7.31 7.31 0 0 0 2.06-4.91V41c0-3.6-2.24-6.58-6-8-3.18-1.19-6.56-.89-8.24.68-3.53.75-5.06 4.4-5 6.84v4.93a7.33 7.33 0 0 0 2.07 4.93A13.78 13.78 0 0 0 16.77 53H2.23l4.94-24.08h44.66L56.77 53z" data-name="Layer 2"/></svg>